<svg aria-label="Praxis Logo" xmlns="http://www.w3.org/2000/svg" version="1.1" x="0px" y="0px" viewBox="0 0 93 105" style="enable-background:new 0 0 93 105;" xml:space="preserve" fill="#3a1419" height="115px">
  <path d="M46.5,2l-45,8l15.2,74.8l29.8,19.5l29.8-19.5L91.5,10L46.5,2z M46.5,72.8c-13.3,0-24-10.8-24-24c0-13.3,10.8-24,24-24 s24,10.8,24,24C70.5,62.1,59.8,72.8,46.5,72.8z"/>
  <path d="M46.5,32.9c-8.8,0-15.9,7.1-15.9,15.9c0,8.8,7.1,15.9,15.9,15.9c8.8,0,15.9-7.1,15.9-15.9C62.4,40,55.3,32.9,46.5,32.9z M46.5,57c-4.6,0-8.2-3.7-8.2-8.2c0-4.6,3.7-8.2,8.2-8.2s8.2,3.7,8.2,8.2C54.7,53.4,51.1,57,46.5,57z"/>
</svg>
